<svg xmlns="http://www.w3.org/2000/svg" width="480" height="142" viewBox="0 0 480 142">
  <rect x="0.5" y="0.5" width="479" height="141" rx="4.5" fill="#151515" stroke="#E4E2E2"/>
  <text x="24" y="32" fill="#58a6ff" font-family="Segoe UI, Ubuntu, sans-serif" font-size="18" font-weight="700">Most Used Languages</text>
  <g transform="translate(24 46)"><rect x="0.00" y="0" width="245.62" height="8" fill="#DA5B0B"/><rect x="245.62" y="0" width="65.22" height="8" fill="#3178c6"/><rect x="310.84" y="0" width="46.88" height="8" fill="#3572A5"/><rect x="357.72" y="0" width="31.81" height="8" fill="#f1e05a"/><rect x="389.53" y="0" width="23.45" height="8" fill="#663399"/><rect x="412.99" y="0" width="19.01" height="8" fill="#e34c26"/></g>
  <circle cx="24" cy="74" r="5" fill="#DA5B0B"/>
    <text x="38" y="78" fill="#f0f6fc" font-family="Segoe UI, Ubuntu, sans-serif" font-size="13">Jupyter Notebook</text>
    <text x="174" y="78" fill="#9E9E9E" font-family="Segoe UI, Ubuntu, sans-serif" font-size="12">56.9%</text><circle cx="252" cy="74" r="5" fill="#3178c6"/>
    <text x="266" y="78" fill="#f0f6fc" font-family="Segoe UI, Ubuntu, sans-serif" font-size="13">TypeScript</text>
    <text x="402" y="78" fill="#9E9E9E" font-family="Segoe UI, Ubuntu, sans-serif" font-size="12">15.1%</text><circle cx="24" cy="98" r="5" fill="#3572A5"/>
    <text x="38" y="102" fill="#f0f6fc" font-family="Segoe UI, Ubuntu, sans-serif" font-size="13">Python</text>
    <text x="174" y="102" fill="#9E9E9E" font-family="Segoe UI, Ubuntu, sans-serif" font-size="12">10.9%</text><circle cx="252" cy="98" r="5" fill="#f1e05a"/>
    <text x="266" y="102" fill="#f0f6fc" font-family="Segoe UI, Ubuntu, sans-serif" font-size="13">JavaScript</text>
    <text x="402" y="102" fill="#9E9E9E" font-family="Segoe UI, Ubuntu, sans-serif" font-size="12">7.4%</text><circle cx="24" cy="122" r="5" fill="#663399"/>
    <text x="38" y="126" fill="#f0f6fc" font-family="Segoe UI, Ubuntu, sans-serif" font-size="13">CSS</text>
    <text x="174" y="126" fill="#9E9E9E" font-family="Segoe UI, Ubuntu, sans-serif" font-size="12">5.4%</text><circle cx="252" cy="122" r="5" fill="#e34c26"/>
    <text x="266" y="126" fill="#f0f6fc" font-family="Segoe UI, Ubuntu, sans-serif" font-size="13">HTML</text>
    <text x="402" y="126" fill="#9E9E9E" font-family="Segoe UI, Ubuntu, sans-serif" font-size="12">4.4%</text>
</svg>
